<mxfile host="app.diagrams.net" modified="2024-04-23T20:13:44.996Z" agent="Mozilla/5.0 (Windows NT 10.0; Win64; x64) AppleWebKit/537.36 (KHTML, like Gecko) Chrome/124.0.0.0 Safari/537.36 Edg/124.0.0.0" etag="iYfZKxJr3VfOMUVy1qxQ" version="24.2.8" type="device">
  <diagram name="Page-1" id="xuu7UoYsEZb40-hKgc5c">
    <mxGraphModel dx="1025" dy="592" grid="1" gridSize="10" guides="1" tooltips="1" connect="1" arrows="1" fold="1" page="1" pageScale="1" pageWidth="827" pageHeight="1169" math="0" shadow="0">
      <root>
        <mxCell id="0" />
        <mxCell id="1" parent="0" />
        <mxCell id="T02E2CBwM7ho0Imsa-wL-13" style="edgeStyle=orthogonalEdgeStyle;rounded=0;orthogonalLoop=1;jettySize=auto;html=1;" edge="1" parent="1" source="T02E2CBwM7ho0Imsa-wL-1" target="T02E2CBwM7ho0Imsa-wL-2">
          <mxGeometry relative="1" as="geometry">
            <mxPoint x="219" y="70" as="targetPoint" />
            <Array as="points">
              <mxPoint x="219" y="120" />
            </Array>
          </mxGeometry>
        </mxCell>
        <mxCell id="T02E2CBwM7ho0Imsa-wL-19" style="edgeStyle=orthogonalEdgeStyle;rounded=0;orthogonalLoop=1;jettySize=auto;html=1;entryX=0;entryY=0.5;entryDx=0;entryDy=0;entryPerimeter=0;exitX=0.5;exitY=1;exitDx=0;exitDy=0;exitPerimeter=0;" edge="1" parent="1" source="T02E2CBwM7ho0Imsa-wL-1" target="T02E2CBwM7ho0Imsa-wL-3">
          <mxGeometry relative="1" as="geometry">
            <mxPoint x="219" y="370" as="targetPoint" />
          </mxGeometry>
        </mxCell>
        <mxCell id="T02E2CBwM7ho0Imsa-wL-1" value="" style="sketch=0;points=[[0,0,0],[0.25,0,0],[0.5,0,0],[0.75,0,0],[1,0,0],[0,1,0],[0.25,1,0],[0.5,1,0],[0.75,1,0],[1,1,0],[0,0.25,0],[0,0.5,0],[0,0.75,0],[1,0.25,0],[1,0.5,0],[1,0.75,0]];outlineConnect=0;fontColor=#232F3E;fillColor=#8C4FFF;strokeColor=#ffffff;dashed=0;verticalLabelPosition=bottom;verticalAlign=top;align=center;html=1;fontSize=12;fontStyle=0;aspect=fixed;shape=mxgraph.aws4.resourceIcon;resIcon=mxgraph.aws4.cloudfront;" vertex="1" parent="1">
          <mxGeometry x="180" y="180" width="78" height="78" as="geometry" />
        </mxCell>
        <mxCell id="T02E2CBwM7ho0Imsa-wL-16" value="" style="edgeStyle=orthogonalEdgeStyle;rounded=0;orthogonalLoop=1;jettySize=auto;html=1;" edge="1" parent="1" source="T02E2CBwM7ho0Imsa-wL-2" target="T02E2CBwM7ho0Imsa-wL-4">
          <mxGeometry relative="1" as="geometry" />
        </mxCell>
        <mxCell id="T02E2CBwM7ho0Imsa-wL-63" value="" style="edgeStyle=orthogonalEdgeStyle;rounded=0;orthogonalLoop=1;jettySize=auto;html=1;entryX=0;entryY=0.5;entryDx=0;entryDy=0;" edge="1" parent="1" source="T02E2CBwM7ho0Imsa-wL-2" target="T02E2CBwM7ho0Imsa-wL-60">
          <mxGeometry relative="1" as="geometry" />
        </mxCell>
        <mxCell id="T02E2CBwM7ho0Imsa-wL-2" value="Amazon S3" style="sketch=0;outlineConnect=0;fontColor=#232F3E;gradientColor=none;strokeColor=#ffffff;fillColor=#232F3E;dashed=0;verticalLabelPosition=middle;verticalAlign=bottom;align=center;html=1;whiteSpace=wrap;fontSize=10;fontStyle=1;spacing=3;shape=mxgraph.aws4.productIcon;prIcon=mxgraph.aws4.s3;" vertex="1" parent="1">
          <mxGeometry x="360" y="70" width="80" height="100" as="geometry" />
        </mxCell>
        <mxCell id="T02E2CBwM7ho0Imsa-wL-26" style="edgeStyle=orthogonalEdgeStyle;rounded=0;orthogonalLoop=1;jettySize=auto;html=1;exitX=0;exitY=0.75;exitDx=0;exitDy=0;exitPerimeter=0;" edge="1" parent="1" source="T02E2CBwM7ho0Imsa-wL-3" target="T02E2CBwM7ho0Imsa-wL-7">
          <mxGeometry relative="1" as="geometry" />
        </mxCell>
        <mxCell id="T02E2CBwM7ho0Imsa-wL-3" value="" style="sketch=0;points=[[0,0,0],[0.25,0,0],[0.5,0,0],[0.75,0,0],[1,0,0],[0,1,0],[0.25,1,0],[0.5,1,0],[0.75,1,0],[1,1,0],[0,0.25,0],[0,0.5,0],[0,0.75,0],[1,0.25,0],[1,0.5,0],[1,0.75,0]];outlineConnect=0;fontColor=#232F3E;fillColor=#E7157B;strokeColor=#ffffff;dashed=0;verticalLabelPosition=bottom;verticalAlign=top;align=center;html=1;fontSize=12;fontStyle=0;aspect=fixed;shape=mxgraph.aws4.resourceIcon;resIcon=mxgraph.aws4.api_gateway;" vertex="1" parent="1">
          <mxGeometry x="362" y="340" width="78" height="78" as="geometry" />
        </mxCell>
        <mxCell id="T02E2CBwM7ho0Imsa-wL-17" value="" style="edgeStyle=orthogonalEdgeStyle;rounded=0;orthogonalLoop=1;jettySize=auto;html=1;" edge="1" parent="1" source="T02E2CBwM7ho0Imsa-wL-4" target="T02E2CBwM7ho0Imsa-wL-3">
          <mxGeometry relative="1" as="geometry" />
        </mxCell>
        <mxCell id="T02E2CBwM7ho0Imsa-wL-4" value="" style="sketch=0;points=[[0,0,0],[0.25,0,0],[0.5,0,0],[0.75,0,0],[1,0,0],[0,1,0],[0.25,1,0],[0.5,1,0],[0.75,1,0],[1,1,0],[0,0.25,0],[0,0.5,0],[0,0.75,0],[1,0.25,0],[1,0.5,0],[1,0.75,0]];outlineConnect=0;fontColor=#232F3E;fillColor=#DD344C;strokeColor=#ffffff;dashed=0;verticalLabelPosition=bottom;verticalAlign=top;align=center;html=1;fontSize=12;fontStyle=0;aspect=fixed;shape=mxgraph.aws4.resourceIcon;resIcon=mxgraph.aws4.cognito;" vertex="1" parent="1">
          <mxGeometry x="362" y="200" width="78" height="78" as="geometry" />
        </mxCell>
        <mxCell id="T02E2CBwM7ho0Imsa-wL-5" value="" style="outlineConnect=0;dashed=0;verticalLabelPosition=bottom;verticalAlign=top;align=center;html=1;shape=mxgraph.aws3.lambda_function;fillColor=#F58534;gradientColor=none;" vertex="1" parent="1">
          <mxGeometry x="430" y="490" width="69" height="72" as="geometry" />
        </mxCell>
        <mxCell id="T02E2CBwM7ho0Imsa-wL-23" style="edgeStyle=orthogonalEdgeStyle;rounded=0;orthogonalLoop=1;jettySize=auto;html=1;entryX=1;entryY=0.5;entryDx=0;entryDy=0;entryPerimeter=0;" edge="1" parent="1" source="T02E2CBwM7ho0Imsa-wL-6" target="T02E2CBwM7ho0Imsa-wL-12">
          <mxGeometry relative="1" as="geometry">
            <mxPoint x="594.5" y="700" as="targetPoint" />
            <Array as="points">
              <mxPoint x="705" y="699" />
            </Array>
          </mxGeometry>
        </mxCell>
        <mxCell id="T02E2CBwM7ho0Imsa-wL-28" value="" style="edgeStyle=orthogonalEdgeStyle;rounded=0;orthogonalLoop=1;jettySize=auto;html=1;" edge="1" parent="1" source="T02E2CBwM7ho0Imsa-wL-7" target="T02E2CBwM7ho0Imsa-wL-21">
          <mxGeometry relative="1" as="geometry">
            <Array as="points">
              <mxPoint x="150" y="699" />
            </Array>
          </mxGeometry>
        </mxCell>
        <mxCell id="T02E2CBwM7ho0Imsa-wL-7" value="" style="outlineConnect=0;dashed=0;verticalLabelPosition=bottom;verticalAlign=top;align=center;html=1;shape=mxgraph.aws3.lambda_function;fillColor=#F58534;gradientColor=none;" vertex="1" parent="1">
          <mxGeometry x="120" y="490" width="69" height="72" as="geometry" />
        </mxCell>
        <mxCell id="T02E2CBwM7ho0Imsa-wL-11" value="" style="edgeStyle=orthogonalEdgeStyle;rounded=0;orthogonalLoop=1;jettySize=auto;html=1;" edge="1" parent="1" source="T02E2CBwM7ho0Imsa-wL-9">
          <mxGeometry relative="1" as="geometry">
            <mxPoint x="170" y="219" as="targetPoint" />
          </mxGeometry>
        </mxCell>
        <mxCell id="T02E2CBwM7ho0Imsa-wL-9" value="" style="shape=actor;whiteSpace=wrap;html=1;" vertex="1" parent="1">
          <mxGeometry x="20" y="189" width="40" height="60" as="geometry" />
        </mxCell>
        <mxCell id="T02E2CBwM7ho0Imsa-wL-24" style="edgeStyle=orthogonalEdgeStyle;rounded=0;orthogonalLoop=1;jettySize=auto;html=1;" edge="1" parent="1" source="T02E2CBwM7ho0Imsa-wL-12" target="T02E2CBwM7ho0Imsa-wL-5">
          <mxGeometry relative="1" as="geometry" />
        </mxCell>
        <mxCell id="T02E2CBwM7ho0Imsa-wL-12" value="" style="sketch=0;points=[[0,0,0],[0.25,0,0],[0.5,0,0],[0.75,0,0],[1,0,0],[0,1,0],[0.25,1,0],[0.5,1,0],[0.75,1,0],[1,1,0],[0,0.25,0],[0,0.5,0],[0,0.75,0],[1,0.25,0],[1,0.5,0],[1,0.75,0]];outlineConnect=0;fillColor=#0050ef;strokeColor=#FFFFFF;dashed=0;verticalLabelPosition=bottom;verticalAlign=top;align=center;html=1;fontSize=12;fontStyle=0;aspect=fixed;shape=mxgraph.aws4.resourceIcon;resIcon=mxgraph.aws4.dynamodb;fontColor=#ffffff;" vertex="1" parent="1">
          <mxGeometry x="482" y="660" width="78" height="78" as="geometry" />
        </mxCell>
        <mxCell id="T02E2CBwM7ho0Imsa-wL-20" value="" style="outlineConnect=0;dashed=0;verticalLabelPosition=bottom;verticalAlign=top;align=center;html=1;shape=mxgraph.aws3.lambda_function;fillColor=#F58534;gradientColor=none;" vertex="1" parent="1">
          <mxGeometry x="240" y="490" width="69" height="72" as="geometry" />
        </mxCell>
        <mxCell id="T02E2CBwM7ho0Imsa-wL-29" value="" style="edgeStyle=orthogonalEdgeStyle;rounded=0;orthogonalLoop=1;jettySize=auto;html=1;" edge="1" parent="1" source="T02E2CBwM7ho0Imsa-wL-21" target="T02E2CBwM7ho0Imsa-wL-20">
          <mxGeometry relative="1" as="geometry" />
        </mxCell>
        <mxCell id="T02E2CBwM7ho0Imsa-wL-21" value="" style="sketch=0;points=[[0,0,0],[0.25,0,0],[0.5,0,0],[0.75,0,0],[1,0,0],[0,1,0],[0.25,1,0],[0.5,1,0],[0.75,1,0],[1,1,0],[0,0.25,0],[0,0.5,0],[0,0.75,0],[1,0.25,0],[1,0.5,0],[1,0.75,0]];outlineConnect=0;fillColor=#0050ef;strokeColor=#FFFFFF;dashed=0;verticalLabelPosition=bottom;verticalAlign=top;align=center;html=1;fontSize=12;fontStyle=0;aspect=fixed;shape=mxgraph.aws4.resourceIcon;resIcon=mxgraph.aws4.dynamodb;fontColor=#ffffff;" vertex="1" parent="1">
          <mxGeometry x="190" y="660" width="78" height="78" as="geometry" />
        </mxCell>
        <mxCell id="T02E2CBwM7ho0Imsa-wL-25" style="edgeStyle=orthogonalEdgeStyle;rounded=0;orthogonalLoop=1;jettySize=auto;html=1;exitX=0;exitY=0.5;exitDx=0;exitDy=0;exitPerimeter=0;" edge="1" parent="1" source="T02E2CBwM7ho0Imsa-wL-5" target="T02E2CBwM7ho0Imsa-wL-3">
          <mxGeometry relative="1" as="geometry">
            <mxPoint x="400" y="420" as="targetPoint" />
          </mxGeometry>
        </mxCell>
        <mxCell id="T02E2CBwM7ho0Imsa-wL-27" style="edgeStyle=orthogonalEdgeStyle;rounded=0;orthogonalLoop=1;jettySize=auto;html=1;" edge="1" parent="1" source="T02E2CBwM7ho0Imsa-wL-20">
          <mxGeometry relative="1" as="geometry">
            <mxPoint x="380" y="420" as="targetPoint" />
          </mxGeometry>
        </mxCell>
        <mxCell id="T02E2CBwM7ho0Imsa-wL-31" value="DYNAMODB&lt;div&gt;&lt;span style=&quot;background-color: initial;&quot;&gt;Adverts Table&lt;/span&gt;&lt;br&gt;&lt;/div&gt;" style="text;html=1;align=center;verticalAlign=middle;whiteSpace=wrap;rounded=0;" vertex="1" parent="1">
          <mxGeometry x="491" y="770" width="60" height="30" as="geometry" />
        </mxCell>
        <mxCell id="T02E2CBwM7ho0Imsa-wL-32" value="DYNAMODB&lt;div&gt;&lt;span style=&quot;background-color: initial;&quot;&gt;&amp;nbsp;Comments Table&lt;/span&gt;&lt;br&gt;&lt;/div&gt;&lt;div&gt;&lt;br&gt;&lt;/div&gt;" style="text;html=1;align=center;verticalAlign=middle;whiteSpace=wrap;rounded=0;" vertex="1" parent="1">
          <mxGeometry x="199" y="777" width="60" height="30" as="geometry" />
        </mxCell>
        <mxCell id="T02E2CBwM7ho0Imsa-wL-33" value="API GATEWAY" style="text;html=1;align=center;verticalAlign=middle;whiteSpace=wrap;rounded=0;" vertex="1" parent="1">
          <mxGeometry x="290" y="310" width="60" height="30" as="geometry" />
        </mxCell>
        <mxCell id="T02E2CBwM7ho0Imsa-wL-34" value="FRONT END" style="text;html=1;align=center;verticalAlign=middle;whiteSpace=wrap;rounded=0;" vertex="1" parent="1">
          <mxGeometry x="280" y="70" width="60" height="30" as="geometry" />
        </mxCell>
        <mxCell id="T02E2CBwM7ho0Imsa-wL-35" value="CLOUDFRONT&lt;div&gt;TWO ORIGINS&lt;/div&gt;&lt;div&gt;SHARING SAME DOMAIN&lt;/div&gt;" style="text;html=1;align=center;verticalAlign=middle;whiteSpace=wrap;rounded=0;" vertex="1" parent="1">
          <mxGeometry x="130" y="290" width="60" height="30" as="geometry" />
        </mxCell>
        <mxCell id="T02E2CBwM7ho0Imsa-wL-37" value="COGNITO" style="text;html=1;align=center;verticalAlign=middle;whiteSpace=wrap;rounded=0;" vertex="1" parent="1">
          <mxGeometry x="290" y="219" width="60" height="30" as="geometry" />
        </mxCell>
        <mxCell id="T02E2CBwM7ho0Imsa-wL-38" value="POST ADVERT" style="text;html=1;align=center;verticalAlign=middle;whiteSpace=wrap;rounded=0;" vertex="1" parent="1">
          <mxGeometry x="720" y="450" width="60" height="30" as="geometry" />
        </mxCell>
        <mxCell id="T02E2CBwM7ho0Imsa-wL-39" value="GET ADVERT DETAILS" style="text;html=1;align=center;verticalAlign=middle;whiteSpace=wrap;rounded=0;" vertex="1" parent="1">
          <mxGeometry x="414" y="440" width="60" height="30" as="geometry" />
        </mxCell>
        <mxCell id="T02E2CBwM7ho0Imsa-wL-40" value="POST ADVERT COMMENT" style="text;html=1;align=center;verticalAlign=middle;whiteSpace=wrap;rounded=0;" vertex="1" parent="1">
          <mxGeometry x="230" y="410" width="60" height="30" as="geometry" />
        </mxCell>
        <mxCell id="T02E2CBwM7ho0Imsa-wL-41" value="GET ADVERT&amp;nbsp;&lt;div&gt;COMMENTS&lt;/div&gt;" style="text;html=1;align=center;verticalAlign=middle;whiteSpace=wrap;rounded=0;" vertex="1" parent="1">
          <mxGeometry x="302" y="470" width="60" height="30" as="geometry" />
        </mxCell>
        <mxCell id="T02E2CBwM7ho0Imsa-wL-42" value="USER" style="text;html=1;align=center;verticalAlign=middle;whiteSpace=wrap;rounded=0;" vertex="1" parent="1">
          <mxGeometry x="10" y="258" width="60" height="30" as="geometry" />
        </mxCell>
        <mxCell id="T02E2CBwM7ho0Imsa-wL-44" value="" style="outlineConnect=0;dashed=0;verticalLabelPosition=bottom;verticalAlign=top;align=center;html=1;shape=mxgraph.aws3.lambda_function;fillColor=#F58534;gradientColor=none;" vertex="1" parent="1">
          <mxGeometry x="560" y="490" width="69" height="72" as="geometry" />
        </mxCell>
        <mxCell id="T02E2CBwM7ho0Imsa-wL-47" value="" style="edgeStyle=orthogonalEdgeStyle;rounded=0;orthogonalLoop=1;jettySize=auto;html=1;" edge="1" parent="1" source="T02E2CBwM7ho0Imsa-wL-3" target="T02E2CBwM7ho0Imsa-wL-6">
          <mxGeometry relative="1" as="geometry">
            <mxPoint x="710" y="510" as="targetPoint" />
            <mxPoint x="440" y="379" as="sourcePoint" />
          </mxGeometry>
        </mxCell>
        <mxCell id="T02E2CBwM7ho0Imsa-wL-6" value="" style="outlineConnect=0;dashed=0;verticalLabelPosition=bottom;verticalAlign=top;align=center;html=1;shape=mxgraph.aws3.lambda_function;fillColor=#F58534;gradientColor=none;" vertex="1" parent="1">
          <mxGeometry x="670" y="500" width="69" height="72" as="geometry" />
        </mxCell>
        <mxCell id="T02E2CBwM7ho0Imsa-wL-48" style="edgeStyle=orthogonalEdgeStyle;rounded=0;orthogonalLoop=1;jettySize=auto;html=1;exitX=0.75;exitY=0;exitDx=0;exitDy=0;exitPerimeter=0;entryX=0.5;entryY=1;entryDx=0;entryDy=0;entryPerimeter=0;" edge="1" parent="1" source="T02E2CBwM7ho0Imsa-wL-12" target="T02E2CBwM7ho0Imsa-wL-44">
          <mxGeometry relative="1" as="geometry" />
        </mxCell>
        <mxCell id="T02E2CBwM7ho0Imsa-wL-49" style="edgeStyle=orthogonalEdgeStyle;rounded=0;orthogonalLoop=1;jettySize=auto;html=1;entryX=1;entryY=0.75;entryDx=0;entryDy=0;entryPerimeter=0;" edge="1" parent="1" source="T02E2CBwM7ho0Imsa-wL-44" target="T02E2CBwM7ho0Imsa-wL-3">
          <mxGeometry relative="1" as="geometry">
            <Array as="points">
              <mxPoint x="595" y="400" />
              <mxPoint x="500" y="400" />
            </Array>
          </mxGeometry>
        </mxCell>
        <mxCell id="T02E2CBwM7ho0Imsa-wL-51" value="GET&lt;div&gt;ALL ADVERTS&lt;/div&gt;" style="text;html=1;align=center;verticalAlign=middle;whiteSpace=wrap;rounded=0;" vertex="1" parent="1">
          <mxGeometry x="520" y="420" width="60" height="30" as="geometry" />
        </mxCell>
        <mxCell id="T02E2CBwM7ho0Imsa-wL-58" value="PAGES" style="swimlane;fontStyle=0;childLayout=stackLayout;horizontal=1;startSize=30;horizontalStack=0;resizeParent=1;resizeParentMax=0;resizeLast=0;collapsible=1;marginBottom=0;whiteSpace=wrap;html=1;" vertex="1" parent="1">
          <mxGeometry x="551" y="45" width="226" height="150" as="geometry" />
        </mxCell>
        <mxCell id="T02E2CBwM7ho0Imsa-wL-59" value="INDEX.HTML&amp;nbsp;" style="text;strokeColor=none;fillColor=none;align=left;verticalAlign=middle;spacingLeft=4;spacingRight=4;overflow=hidden;points=[[0,0.5],[1,0.5]];portConstraint=eastwest;rotatable=0;whiteSpace=wrap;html=1;" vertex="1" parent="T02E2CBwM7ho0Imsa-wL-58">
          <mxGeometry y="30" width="226" height="30" as="geometry" />
        </mxCell>
        <mxCell id="T02E2CBwM7ho0Imsa-wL-60" value="DASHBOARD.HTML" style="text;strokeColor=none;fillColor=none;align=left;verticalAlign=middle;spacingLeft=4;spacingRight=4;overflow=hidden;points=[[0,0.5],[1,0.5]];portConstraint=eastwest;rotatable=0;whiteSpace=wrap;html=1;" vertex="1" parent="T02E2CBwM7ho0Imsa-wL-58">
          <mxGeometry y="60" width="226" height="30" as="geometry" />
        </mxCell>
        <mxCell id="T02E2CBwM7ho0Imsa-wL-61" value="NEWADVERT.HTML" style="text;strokeColor=none;fillColor=none;align=left;verticalAlign=middle;spacingLeft=4;spacingRight=4;overflow=hidden;points=[[0,0.5],[1,0.5]];portConstraint=eastwest;rotatable=0;whiteSpace=wrap;html=1;" vertex="1" parent="T02E2CBwM7ho0Imsa-wL-58">
          <mxGeometry y="90" width="226" height="30" as="geometry" />
        </mxCell>
        <mxCell id="T02E2CBwM7ho0Imsa-wL-62" value="ADVERT_COMMENTS.HTML" style="text;strokeColor=none;fillColor=none;align=left;verticalAlign=middle;spacingLeft=4;spacingRight=4;overflow=hidden;points=[[0,0.5],[1,0.5]];portConstraint=eastwest;rotatable=0;whiteSpace=wrap;html=1;" vertex="1" parent="T02E2CBwM7ho0Imsa-wL-58">
          <mxGeometry y="120" width="226" height="30" as="geometry" />
        </mxCell>
      </root>
    </mxGraphModel>
  </diagram>
</mxfile>
